<?xml version="1.0" encoding="UTF-8" standalone="no"?>
<!DOCTYPE svg PUBLIC "-//W3C//DTD SVG 1.1//EN" "http://www.w3.org/Graphics/SVG/1.1/DTD/svg11.dtd">
<svg width="100%" height="100%" viewBox="0 0 24 24" version="1.1" xmlns="http://www.w3.org/2000/svg" xmlns:xlink="http://www.w3.org/1999/xlink" xml:space="preserve" xmlns:serif="http://www.serif.com/" style="fill-rule:evenodd;clip-rule:evenodd;stroke-linejoin:round;stroke-miterlimit:2;">
    <path d="M24,13.983L24,10.017L20.747,9.376C20.569,8.785 20.333,8.215 20.039,7.673L21.854,4.95L19.05,2.146L16.327,3.961C15.785,3.668 15.215,3.431 14.624,3.253L13.983,0L10.017,0L9.376,3.253C8.785,3.431 8.215,3.668 7.673,3.961L4.95,2.146L2.146,4.95L3.961,7.673C3.668,8.215 3.431,8.785 3.253,9.376L0,10.017L0,13.983L3.253,14.624C3.431,15.215 3.668,15.785 3.961,16.327L2.146,19.051L4.95,21.854L7.673,20.039C8.215,20.333 8.785,20.569 9.376,20.747L10.017,24L13.983,24L14.624,20.747C15.215,20.569 15.785,20.333 16.327,20.039L19.051,21.854L21.854,19.05L20.039,16.327C20.333,15.785 20.569,15.215 20.747,14.624L24,13.983ZM12,16.922C9.286,16.922 7.078,14.714 7.078,12C7.078,9.286 9.286,7.078 12,7.078C14.714,7.078 16.922,9.286 16.922,12C16.922,14.714 14.714,16.922 12,16.922Z" style="fill:white;fill-rule:nonzero;"/>
    <g transform="matrix(1.12462,0,0,1.12462,-1.73341,-1.7439)">
        <circle cx="12.272" cy="12.188" r="3.484" style="fill:white;"/>
    </g>
</svg>
