<svg width="6" height="13" viewBox="0 0 6 13" fill="none" xmlns="http://www.w3.org/2000/svg">
<path d="M2.76658 5.81504C1.99127 5.80324 1.3701 5.16287 1.3819 4.38755C1.3937 3.61223 2.03408 2.99106 2.80939 3.00287C3.58471 3.01467 4.20588 3.65504 4.19408 4.43036C4.18935 4.74096 4.43731 4.99663 4.74795 5.00135C5.05859 5.00608 5.31422 4.75809 5.31895 4.44748C5.33725 3.24524 4.50972 2.224 3.38798 1.95032L3.39751 1.32412C3.40224 1.01352 3.15428 0.757856 2.84364 0.753128C2.533 0.748399 2.27737 0.996396 2.27264 1.307L2.26311 1.9332C1.13356 2.17261 0.275333 3.16819 0.257032 4.37043C0.235787 5.766 1.35388 6.91867 2.74946 6.93991C3.52478 6.95171 4.14595 7.59209 4.13414 8.3674C4.12234 9.14272 3.48197 9.76389 2.70665 9.75208C1.93134 9.74028 1.31017 9.09991 1.32197 8.32459C1.3267 8.01399 1.07874 7.75833 0.768096 7.7536C0.457456 7.74887 0.201828 7.99686 0.197099 8.30747C0.178798 9.50971 1.00633 10.531 2.12806 10.8046L2.11853 11.4308C2.1138 11.7414 2.36176 11.9971 2.6724 12.0018C2.98304 12.0066 3.23867 11.7586 3.2434 11.448L3.25293 10.8218C4.38248 10.5823 5.24071 9.58677 5.25901 8.38453C5.28026 6.98895 4.16216 5.83629 2.76658 5.81504Z" fill="black"/>
</svg>
