<svg width="24" height="20" viewBox="0 0 24 20" fill="none" xmlns="http://www.w3.org/2000/svg">
<path d="M12.0072 17.4813C12.0072 17.9041 11.7629 18.2882 11.3806 18.4675C11.2328 18.5374 11.0744 18.5712 10.9171 18.5712C10.6679 18.5712 10.421 18.4856 10.2216 18.3202L4.26329 13.3829H1.08988C0.488059 13.3834 0 12.8951 0 12.2932V7.95102C0 7.34894 0.488059 6.86088 1.08988 6.86088H4.26355L10.2219 1.92355C10.5474 1.65372 10.9989 1.5962 11.3809 1.77677C11.7629 1.95605 12.0075 2.34041 12.0075 2.76294L12.0072 17.4813ZM16.1957 15.7783C16.1691 15.7801 16.1436 15.7811 16.1173 15.7811C15.8294 15.7811 15.5518 15.6673 15.3468 15.462L15.201 15.3158C14.8187 14.9342 14.7738 14.3298 15.0958 13.8959C15.9119 12.7955 16.3427 11.491 16.3427 10.1225C16.3427 8.6506 15.8537 7.27001 14.9281 6.12983C14.5757 5.69646 14.6082 5.06704 15.0032 4.67236L15.1486 4.52661C15.3664 4.30889 15.6581 4.19023 15.9739 4.20906C16.2813 4.22454 16.5685 4.36926 16.7635 4.60761C18.0473 6.17858 18.7255 8.08593 18.7255 10.1228C18.7255 12.0198 18.1258 13.8255 16.9907 15.3439C16.8011 15.5969 16.5112 15.7558 16.1957 15.7783ZM20.7017 19.1464C20.5047 19.3794 20.2196 19.5192 19.9144 19.5321C19.8995 19.5326 19.8843 19.5331 19.8688 19.5331C19.5801 19.5331 19.3031 19.4191 19.098 19.214L18.9548 19.0709C18.5547 18.671 18.5277 18.0315 18.8914 17.5987C20.6491 15.5082 21.6175 12.8533 21.6175 10.1225C21.6175 7.28213 20.5807 4.54776 18.6989 2.42321C18.3174 1.9919 18.3368 1.33901 18.7428 0.931435L18.8857 0.788268C19.0977 0.575194 19.3732 0.457822 19.6892 0.467883C19.9893 0.476395 20.273 0.608986 20.4724 0.833411C22.7471 3.39443 24 6.69373 24 10.1225C24.0005 13.4216 22.8291 16.6264 20.7017 19.1464Z" fill="white"/>
</svg>
