<svg width="10" height="9" viewBox="0 0 10 9" fill="none" xmlns="http://www.w3.org/2000/svg">
<path d="M8.86815 3.37403L6.38866 3.01368L5.28026 0.766605C5.24999 0.705082 5.20018 0.655277 5.13866 0.625004C4.98436 0.548832 4.79686 0.612308 4.71971 0.766605L3.61132 3.01368L1.13182 3.37403C1.06346 3.38379 1.00096 3.41602 0.953113 3.46485C0.895263 3.52431 0.863385 3.6043 0.864484 3.68725C0.865582 3.7702 0.899568 3.84932 0.958972 3.90723L2.75292 5.65625L2.32909 8.12598C2.31915 8.18343 2.32551 8.24252 2.34744 8.29654C2.36937 8.35056 2.406 8.39736 2.45318 8.43162C2.50035 8.46588 2.55619 8.48624 2.61434 8.49039C2.6725 8.49454 2.73066 8.48231 2.78221 8.45508L4.99999 7.28907L7.21776 8.45508C7.27831 8.48731 7.34862 8.49805 7.416 8.48633C7.58593 8.45704 7.70018 8.2959 7.67089 8.12598L7.24706 5.65625L9.041 3.90723C9.08983 3.85938 9.12206 3.79688 9.13182 3.72852C9.15819 3.55762 9.03905 3.39942 8.86815 3.37403V3.37403Z" fill="#F1511B"/>
</svg>
