<svg width="19" height="19" viewBox="0 0 19 19" fill="none" xmlns="http://www.w3.org/2000/svg">
<path d="M1.3169 7.75331L16.1011 7.97837L16.1556 7.9792L16.2325 2.92562C16.2419 2.30961 15.7484 1.80082 15.1323 1.79144L14.6479 1.78406C14.132 1.77621 13.6915 2.12125 13.5564 2.59544L13.6415 2.59674C14.4804 2.60951 15.1525 3.30237 15.1397 4.14125L15.1262 5.03074C15.1219 5.31276 14.8968 5.539 14.6181 5.54904C14.609 5.54935 14.6 5.55013 14.5909 5.54999L11.3872 5.50122C11.096 5.49679 10.8635 5.25711 10.8679 4.96591L10.8815 4.07642C10.8942 3.23755 11.5871 2.56546 12.426 2.57823L12.4834 2.57911C12.6416 1.52016 13.5646 0.712764 14.664 0.729499L15.1484 0.736874C16.3459 0.755103 17.3053 1.74418 17.2871 2.94167L17.2101 7.99525L18.2603 8.01124C18.5515 8.01567 18.7839 8.25535 18.7795 8.54655L18.7497 10.5078C18.7452 10.799 18.5055 11.0315 18.2143 11.0271L18.1279 11.0257L18.1083 12.313C18.0923 13.3641 17.6632 14.3137 16.9783 15.0096L17.6743 16.725C17.815 17.0717 17.7728 17.4631 17.5614 17.772C17.35 18.0808 17.0004 18.2618 16.6261 18.2561C16.2828 18.2509 15.9555 18.0833 15.7503 17.8079L14.5305 16.1694C14.3945 16.1816 14.2565 16.1869 14.1169 16.1848L5.20951 16.0492C5.06992 16.0471 4.93217 16.0375 4.79652 16.0212L3.52737 17.6219C3.31404 17.8909 2.98173 18.0484 2.6384 18.0432C2.26417 18.0375 1.92023 17.8459 1.71829 17.5308C1.51641 17.2157 1.4861 16.8232 1.63733 16.4808L2.38523 14.7874C1.7218 14.0711 1.3218 13.1088 1.3378 12.0577L1.3574 10.7704L1.27099 10.7691C0.979792 10.7647 0.747304 10.525 0.751737 10.2338L0.781592 8.27257C0.786025 7.98141 1.0257 7.74888 1.3169 7.75331ZM12.4099 3.63287C12.1525 3.62895 11.9399 3.83516 11.936 4.09255L11.9305 4.45476L14.0796 4.48747L14.0852 4.12526C14.0891 3.86788 13.8829 3.65529 13.6255 3.65137L12.4099 3.63287ZM16.5964 17.1782C16.6071 17.1926 16.6242 17.2013 16.6422 17.2016C16.6507 17.2017 16.6734 17.2021 16.6911 17.1763C16.7087 17.1505 16.7002 17.1295 16.697 17.1216L16.1104 15.6758C15.9611 15.7605 15.8059 15.8358 15.6454 15.9007L16.5964 17.1782ZM2.60638 16.9619C2.62324 16.9882 2.64595 16.9885 2.65449 16.9887C2.67245 16.9889 2.68984 16.9807 2.70099 16.9667L3.69045 15.7187C3.53202 15.649 3.3792 15.5689 3.23254 15.4798L2.60215 16.907C2.59869 16.9148 2.58951 16.9355 2.60638 16.9619ZM2.3924 12.0738C2.36825 13.6602 3.63922 14.9705 5.2256 14.9947L14.133 15.1303C15.7193 15.1544 17.0296 13.8834 17.0537 12.297L17.0733 11.0097L2.412 10.7865L2.3924 12.0738ZM1.81433 9.72262L17.7031 9.96449L17.7169 9.05778L1.82813 8.81591L1.81433 9.72262Z" fill="black"/>
</svg>
