<svg width="22" height="17" viewBox="0 0 22 17" fill="none" xmlns="http://www.w3.org/2000/svg">
<path d="M21.0122 12.2602L20.6685 12.255L20.7103 9.50532C20.7154 9.14083 20.5757 8.7892 20.3219 8.52755C20.0681 8.2659 19.7209 8.11557 19.3564 8.10955L19.4453 2.26648C19.4504 1.90199 19.3107 1.55036 19.0569 1.28871C18.8031 1.02705 18.4559 0.876733 18.0914 0.870707L3.65561 0.650955C3.29112 0.645884 2.93949 0.785567 2.67784 1.03937C2.41619 1.29318 2.26586 1.64039 2.25984 2.00487L2.17089 7.84794C1.8064 7.84287 1.45477 7.98255 1.19312 8.23636C0.931469 8.49016 0.781147 8.83738 0.775121 9.20185L0.733264 11.9515L0.389554 11.9463C0.298396 11.9449 0.210421 11.9798 0.144981 12.0433C0.0795421 12.1067 0.0419991 12.1936 0.0406114 12.2848L0.0196826 13.6596C0.018295 13.7508 0.0531764 13.8388 0.116653 13.9042C0.18013 13.9696 0.267003 14.0072 0.358161 14.0086L0.701871 14.0138L0.680942 15.3886C0.679554 15.4798 0.714436 15.5678 0.777913 15.6332C0.84139 15.6986 0.928262 15.7362 1.01942 15.7376L2.05055 15.7533C2.12999 15.7545 2.2074 15.7282 2.26959 15.6787C2.33178 15.6293 2.3749 15.5598 2.39159 15.4821L2.70226 14.0442L18.6367 14.2868L18.9034 15.7335C18.9178 15.8116 18.9587 15.8824 19.0194 15.9337C19.08 15.985 19.1566 16.0137 19.2361 16.0149L20.2672 16.0306C20.3583 16.032 20.4463 15.9971 20.5118 15.9336C20.5772 15.8701 20.6147 15.7833 20.6161 15.6921L20.6371 14.3173L20.9808 14.3225C21.0719 14.3239 21.1599 14.289 21.2253 14.2255C21.2908 14.162 21.3283 14.0752 21.3297 13.984L21.3506 12.6092C21.352 12.518 21.3171 12.43 21.2537 12.3646C21.1902 12.2992 21.1033 12.2616 21.0122 12.2602ZM2.94726 2.01533C2.95027 1.83309 3.02543 1.65949 3.15626 1.53258C3.28708 1.40568 3.4629 1.33584 3.64514 1.33838L18.081 1.55813C18.2632 1.56114 18.4368 1.6363 18.5637 1.76713C18.6906 1.89795 18.7605 2.07377 18.7579 2.25601L18.669 8.09908L17.9816 8.08862L18.0025 6.71378C18.0076 6.34929 17.8679 5.99766 17.6141 5.73601C17.3603 5.47436 17.0131 5.32404 16.6486 5.31801L12.5241 5.25522C12.1596 5.25015 11.8079 5.38984 11.5463 5.64364C11.2846 5.89745 11.1343 6.24466 11.1283 6.60914L11.1074 7.98398L10.4199 7.97351L10.4409 6.59867C10.4459 6.23418 10.3063 5.88255 10.0524 5.6209C9.79864 5.35925 9.45143 5.20893 9.08695 5.2029L4.96243 5.14012C4.59794 5.13504 4.24631 5.27473 3.98466 5.52853C3.72301 5.78234 3.57269 6.12955 3.56666 6.49403L3.54573 7.86887L2.85831 7.8584L2.94726 2.01533ZM17.3151 6.70332L17.2941 8.07816L11.7948 7.99444L11.8157 6.6196C11.8187 6.43736 11.8939 6.26376 12.0247 6.13685C12.1555 6.00995 12.3313 5.94011 12.5136 5.94264L16.6381 6.00543C16.8203 6.00844 16.994 6.0836 17.1209 6.21443C17.2478 6.34526 17.3176 6.52107 17.3151 6.70332ZM9.75344 6.58821L9.73251 7.96305L4.23315 7.87933L4.25408 6.50449C4.25709 6.32225 4.33225 6.14865 4.46308 6.02174C4.59391 5.89484 4.76972 5.825 4.95197 5.82754L9.07649 5.89032C9.25873 5.89334 9.43233 5.9685 9.55923 6.09932C9.68614 6.23015 9.75598 6.40596 9.75344 6.58821ZM1.46254 9.21232C1.46555 9.03008 1.54072 8.85647 1.67154 8.72957C1.80237 8.60267 1.97818 8.53282 2.16043 8.53536L19.3459 8.79697C19.5282 8.79998 19.7018 8.87514 19.8287 9.00597C19.9556 9.13679 20.0254 9.31261 20.0229 9.49485L19.981 12.2445L1.42068 11.962L1.46254 9.21232ZM1.77917 15.0616L1.37359 15.0554L1.38929 14.0243L2.0011 14.0336L1.77917 15.0616ZM19.9339 15.3379L19.5284 15.3318L19.3378 14.2975L19.9496 14.3068L19.9339 15.3379ZM20.6475 13.6298L0.712335 13.3264L0.7228 12.639L20.658 12.9424L20.6475 13.6298Z" fill="black"/>
</svg>
